name analog
datacolumns 19
datarows 45
range 0.4635 0.4855
endheader
time	ground_force_vx	ground_force_vy	ground_force_vz	ground_force_px	ground_force_py	ground_force_pz	l_ground_force_vx	l_ground_force_vy	l_ground_force_vz	l_ground_force_px	l_ground_force_py	l_ground_force_pz	ground_torque_x	ground_torque_y	ground_torque_z	l_ground_torque_x	l_ground_torque_y	l_ground_torque_z
0.4635	-0.0	-0.0	-0.0	-0.0	-0.0	-0.0	-1.6733009815216064	-7.6718363761901855	-860.8027954101562	-0.0	-0.0	-0.0	-0.0	-0.0	-0.0	222173.265625	-20842.046875	-1401.429443359375
0.464	-0.0	-0.0	-0.0	-0.0	-0.0	-0.0	-1.2419509887695312	-8.944907188415527	-857.5646362304688	-0.0	-0.0	-0.0	-0.0	-0.0	-0.0	221262.609375	-21200.064453125	-1206.1180419921875
0.4645	-0.0	-0.0	-0.0	-0.0	-0.0	-0.0	-0.5691757202148438	-10.095745086669922	-852.3759155273438	-0.0	-0.0	-0.0	-0.0	-0.0	-0.0	220700.890625	-21505.14453125	-1202.73779296875
0.465	-0.0	-0.0	-0.0	-0.0	-0.0	-0.0	-0.5198860764503479	-10.434283256530762	-853.2291259765625	-0.0	-0.0	-0.0	-0.0	-0.0	-0.0	220029.125	-21959.412109375	-1028.843505859375
0.4655	-0.0	-0.0	-0.0	-0.0	-0.0	-0.0	-0.1774215698242187	-11.317541122436523	-853.1240844726562	-0.0	-0.0	-0.0	-0.0	-0.0	-0.0	220277.484375	-22522.169921875	-841.9002075195312
0.466	-0.0	-0.0	-0.0	-0.0	-0.0	-0.0	-0.1261451542377472	-11.709513664245604	-854.1722412109375	-0.0	-0.0	-0.0	-0.0	-0.0	-0.0	220497.921875	-22958.927734375	-901.3302612304688
0.4665	-0.0	-0.0	-0.0	-0.0	-0.0	-0.0	0.2033668458461761	-11.910929679870604	-857.4175415039062	-0.0	-0.0	-0.0	-0.0	-0.0	-0.0	221039.5	-23605.119140625	-888.6043090820312
0.467	-0.0	-0.0	-0.0	-0.0	-0.0	-0.0	-0.1139332056045532	-11.166199684143066	-859.5617065429688	-0.0	-0.0	-0.0	-0.0	-0.0	-0.0	221480.75	-24212.03515625	-1070.82275390625
0.4675	-0.0	-0.0	-0.0	-0.0	-0.0	-0.0	0.0379660427570343	-11.2042236328125	-862.4540405273438	-0.0	-0.0	-0.0	-0.0	-0.0	-0.0	222484.71875	-24950.775390625	-943.6148071289062
0.468	-0.0	-0.0	-0.0	-0.0	-0.0	-0.0	0.3548431396484375	-9.93004322052002	-864.8485107421875	-0.0	-0.0	-0.0	-0.0	-0.0	-0.0	223312.171875	-25489.275390625	-998.2069091796876
0.4685	-0.0	-0.0	-0.0	-0.0	-0.0	-0.0	0.6457614898681641	-8.832168579101562	-866.0972900390625	-0.0	-0.0	-0.0	-0.0	-0.0	-0.0	224779.375	-26278.708984375	-984.9725952148438
0.46900000000000003	-0.0	-0.0	-0.0	-0.0	-0.0	-0.0	0.7225462198257446	-7.332003116607666	-870.5361938476562	-0.0	-0.0	-0.0	-0.0	-0.0	-0.0	226038.734375	-26681.10546875	-1103.218017578125
0.46950000000000003	-0.0	-0.0	-0.0	-0.0	-0.0	-0.0	1.103230357170105	-6.723707675933838	-875.4754638671875	-0.0	-0.0	-0.0	-0.0	-0.0	-0.0	227102.0	-27630.833984375	-1034.850830078125
0.47000000000000003	-0.0	-0.0	-0.0	-0.0	-0.0	-0.0	2.053288698196411	-5.161309719085693	-880.7567138671875	-0.0	-0.0	-0.0	-0.0	-0.0	-0.0	228406.90625	-28076.251953125	-817.4620971679688
0.47050000000000003	-0.0	-0.0	-0.0	-0.0	-0.0	-0.0	3.371009826660156	-4.377208709716797	-885.9931640625	-0.0	-0.0	-0.0	-0.0	-0.0	-0.0	229291.5	-28898.822265625	-385.1489868164063
0.47100000000000003	-0.0	-0.0	-0.0	-0.0	-0.0	-0.0	3.965872049331665	-3.883480072021485	-889.484130859375	-0.0	-0.0	-0.0	-0.0	-0.0	-0.0	230313.234375	-29173.0	-146.48606872558594
0.47150000000000003	-0.0	-0.0	-0.0	-0.0	-0.0	-0.0	3.53851056098938	-3.5459415912628174	-889.6383056640625	-0.0	-0.0	-0.0	-0.0	-0.0	-0.0	230597.796875	-29353.935546875	-214.81455993652344
0.47200000000000003	-0.0	-0.0	-0.0	-0.0	-0.0	-0.0	2.9274559020996094	-3.873022317886353	-891.8228149414062	-0.0	-0.0	-0.0	-0.0	-0.0	-0.0	230798.6875	-29404.427734375	-346.04913330078125
0.47250000000000003	-0.0	-0.0	-0.0	-0.0	-0.0	-0.0	2.772590160369873	-4.010105609893799	-891.8740844726562	-0.0	-0.0	-0.0	-0.0	-0.0	-0.0	230368.140625	-29587.5234375	-368.28814697265625
0.47300000000000003	-0.0	-0.0	-0.0	-0.0	-0.0	-0.0	2.825439214706421	-4.212945461273193	-889.0797119140625	-0.0	-0.0	-0.0	-0.0	-0.0	-0.0	229858.96875	-29626.08203125	-227.4741668701172
0.47350000000000003	-0.0	-0.0	-0.0	-0.0	-0.0	-0.0	2.9408035278320312	-5.5728535652160645	-886.7586669921875	-0.0	-0.0	-0.0	-0.0	-0.0	-0.0	228905.953125	-29762.8671875	58.425025939941406
0.47400000000000003	-0.0	-0.0	-0.0	-0.0	-0.0	-0.0	2.7232229709625244	-6.645713806152344	-884.1046142578125	-0.0	-0.0	-0.0	-0.0	-0.0	-0.0	228177.40625	-29525.37890625	111.65454864501952
0.47450000000000003	-0.0	-0.0	-0.0	-0.0	-0.0	-0.0	2.661323547363281	-7.745465278625488	-880.66650390625	-0.0	-0.0	-0.0	-0.0	-0.0	-0.0	227041.359375	-29395.6484375	109.56591796875
0.47500000000000003	-0.0	-0.0	-0.0	-0.0	-0.0	-0.0	1.965175747871399	-9.38302516937256	-876.8262939453125	-0.0	-0.0	-0.0	-0.0	-0.0	-0.0	225976.71875	-29202.353515625	46.786956787109375
0.47550000000000003	-0.0	-0.0	-0.0	-0.0	-0.0	-0.0	1.201110601425171	-10.46261978149414	-873.174560546875	-0.0	-0.0	-0.0	-0.0	-0.0	-0.0	224809.765625	-29120.162109375	-20.01213264465332
0.47600000000000003	-0.0	-0.0	-0.0	-0.0	-0.0	-0.0	0.3958047330379486	-12.419333457946776	-869.038330078125	-0.0	-0.0	-0.0	-0.0	-0.0	-0.0	223955.28125	-28749.505859375	-158.02862548828125
0.47650000000000003	-0.0	-0.0	-0.0	-0.0	-0.0	-0.0	-0.0201538503170013	-13.764532089233398	-867.2386474609375	-0.0	-0.0	-0.0	-0.0	-0.0	-0.0	222885.84375	-28594.072265625	-183.6490631103516
0.47700000000000004	-0.0	-0.0	-0.0	-0.0	-0.0	-0.0	0.4021948575973511	-14.694817543029783	-865.9502563476562	-0.0	-0.0	-0.0	-0.0	-0.0	-0.0	222301.3125	-28329.412109375	28.221466064453125
0.47750000000000004	-0.0	-0.0	-0.0	-0.0	-0.0	-0.0	-0.1221146285533905	-14.8242769241333	-863.451904296875	-0.0	-0.0	-0.0	-0.0	-0.0	-0.0	222094.015625	-28257.083984375	-58.556766510009766
0.47800000000000004	-0.0	-0.0	-0.0	-0.0	-0.0	-0.0	-0.3742183744907379	-14.015535354614258	-863.2665405273438	-0.0	-0.0	-0.0	-0.0	-0.0	-0.0	222236.953125	-28614.86328125	-177.1732940673828
0.47850000000000004	-0.0	-0.0	-0.0	-0.0	-0.0	-0.0	0.1634794771671295	-12.941644668579102	-863.6515502929688	-0.0	-0.0	-0.0	-0.0	-0.0	-0.0	222720.265625	-28986.51171875	-234.1296844482422
0.47900000000000004	-0.0	-0.0	-0.0	-0.0	-0.0	-0.0	0.8263645768165588	-12.17446994781494	-866.2451171875	-0.0	-0.0	-0.0	-0.0	-0.0	-0.0	223061.6875	-29469.458984375	-5.5728254318237305
0.47950000000000004	-0.0	-0.0	-0.0	-0.0	-0.0	-0.0	1.8488677740097048	-11.156526565551758	-867.4757690429688	-0.0	-0.0	-0.0	-0.0	-0.0	-0.0	224076.375	-30257.580078125	-37.34137725830078
0.48	-0.0	-0.0	-0.0	-0.0	-0.0	-0.0	1.92340350151062	-10.227269172668455	-869.1494750976562	-0.0	-0.0	-0.0	-0.0	-0.0	-0.0	224384.671875	-30550.4453125	3.490755319595337
0.4805	-0.0	-0.0	-0.0	-0.0	-0.0	-0.0	1.4335310459136963	-9.58103084564209	-870.7841796875	-0.0	-0.0	-0.0	-0.0	-0.0	-0.0	225110.890625	-31124.30859375	-209.06231689453125
0.481	-0.0	-0.0	-0.0	-0.0	-0.0	-0.0	0.9615851640701294	-8.948832511901855	-871.3573608398438	-0.0	-0.0	-0.0	-0.0	-0.0	-0.0	225395.984375	-31555.046875	-402.6070861816406
0.4815	-0.0	-0.0	-0.0	-0.0	-0.0	-0.0	0.0713758170604705	-8.111382484436035	-873.926513671875	-0.0	-0.0	-0.0	-0.0	-0.0	-0.0	225803.0625	-32129.203125	-744.6337280273438
0.482	-0.0	-0.0	-0.0	-0.0	-0.0	-0.0	-0.4265097677707672	-7.390480518341064	-873.3973999023438	-0.0	-0.0	-0.0	-0.0	-0.0	-0.0	226401.71875	-32213.07421875	-842.3594360351562
0.4825	-0.0	-0.0	-0.0	-0.0	-0.0	-0.0	-1.8917430639266968	-6.5192084312438965	-874.4546508789062	-0.0	-0.0	-0.0	-0.0	-0.0	-0.0	226584.4375	-32935.25	-1006.7606201171876
0.483	-0.0	-0.0	-0.0	-0.0	-0.0	-0.0	-2.69022274017334	-5.356845855712891	-873.6911010742188	-0.0	-0.0	-0.0	-0.0	-0.0	-0.0	226694.75	-32948.390625	-1342.987548828125
0.4835	-0.0	-0.0	-0.0	-0.0	-0.0	-0.0	-3.890313148498535	-4.489944934844971	-873.8121948242188	-0.0	-0.0	-0.0	-0.0	-0.0	-0.0	226989.265625	-33442.19921875	-1407.8309326171875
0.484	-0.0	-0.0	-0.0	-0.0	-0.0	-0.0	-4.79159688949585	-3.531658411026001	-873.2281494140625	-0.0	-0.0	-0.0	-0.0	-0.0	-0.0	227178.265625	-33948.0	-1635.8270263671875
0.4845	-0.0	-0.0	-0.0	-0.0	-0.0	-0.0	-4.835219860076904	-2.9136555194854736	-874.275634765625	-0.0	-0.0	-0.0	-0.0	-0.0	-0.0	227309.515625	-34667.99609375	-1675.4681396484375
0.485	-0.0	-0.0	-0.0	-0.0	-0.0	-0.0	-4.021384239196777	-2.4583723545074463	-875.3829956054688	-0.0	-0.0	-0.0	-0.0	-0.0	-0.0	227846.9375	-34689.6015625	-1457.0223388671875
0.4855	-0.0	-0.0	-0.0	-0.0	-0.0	-0.0	-3.3413290977478027	-0.7064086198806763	-875.73095703125	-0.0	-0.0	-0.0	-0.0	-0.0	-0.0	227562.828125	-35379.64453125	-1347.362548828125
